<svg width="121" height="120" viewBox="0 0 121 120" fill="none" xmlns="http://www.w3.org/2000/svg">
<path d="M7.25 113.25V21.3L21.8 6.75H99.2L113.75 21.3V113.25H7.25Z" fill="#FFC49C"/>
<path d="M98.9 7.5L113 21.6V112.5H8V21.6L22.1 7.5H98.9ZM99.5 6H21.5L6.5 21V114H114.5V21L99.5 6Z" fill="#A16A4A"/>
<path d="M98.75 23.25V6.75H99.2L113.75 21.3V23.25H98.75Z" fill="#D6976D"/>
<path d="M99.5 8.1L113 21.6V22.5H99.5V8.1ZM99.5 6H98V24H114.5V21L99.5 6Z" fill="#A16A4A"/>
<path d="M7.25 23.25V21.3L21.8 6.75H22.25V23.25H7.25Z" fill="#D6976D"/>
<path d="M21.5 8.1V22.5H8V21.6L21.5 8.1ZM23 6H21.5L6.5 21V24H23V6Z" fill="#A16A4A"/>
<path d="M6.5 22.5H114.5V24H6.5V22.5Z" fill="#A16A4A"/>
<path d="M72.5 36H60.5H48.5C46.85 36 45.5 37.35 45.5 39C45.5 40.65 46.85 42 48.5 42H60.5H72.5C74.15 42 75.5 40.65 75.5 39C75.5 37.35 74.15 36 72.5 36Z" fill="#A16A4A"/>
</svg>
