<svg width="153" height="152" fill="none" xmlns="http://www.w3.org/2000/svg"><path d="M132.5 2a2 2 0 1 0 0 4 2 2 0 0 0 0-4Z" fill="#F9A825"/><path d="M76.5 0a76 76 0 1 0 0 152 76 76 0 0 0 0-152Z" fill="#F1F1F6"/><path d="M144.5 0a8 8 0 1 0 0 15.999A8 8 0 0 0 144.5 0Z" fill="#F9A825"/><path d="M4.5 24a4 4 0 1 0 0 8 4 4 0 0 0 0-8Z" fill="#F03434"/><path d="M132.5 126a3.995 3.995 0 0 0-2.828 1.172 3.995 3.995 0 0 0 0 5.656 3.995 3.995 0 0 0 5.656 0 3.995 3.995 0 0 0 0-5.656A3.995 3.995 0 0 0 132.5 126Zm-122-2a8.001 8.001 0 1 0 0 16.002 8.001 8.001 0 0 0 0-16.002Z" fill="#F9A825"/><path d="M24.5 138a3.997 3.997 0 0 0-4 4 3.998 3.998 0 0 0 6.828 2.828A3.998 3.998 0 0 0 24.5 138Z" fill="#F03434"/><path d="M109.466 128.068a4.954 4.954 0 0 0-3.511 1.454 4.968 4.968 0 0 0 0 7.023 4.954 4.954 0 0 0 3.511 1.455 4.954 4.954 0 0 0 3.511-1.455 4.954 4.954 0 0 0 1.455-3.511 4.954 4.954 0 0 0-1.455-3.512 4.967 4.967 0 0 0-3.511-1.454ZM8.5 70a2 2 0 1 0 0 4 2 2 0 0 0 0-4Z" fill="#fff"/><path d="M148.5 36a2 2 0 1 0 0 4 2 2 0 0 0 0-4Z" fill="#F9A825"/><path d="M136.5 104a3.995 3.995 0 0 0-2.828 1.172 3.995 3.995 0 0 0 0 5.656 3.995 3.995 0 0 0 5.656 0 3.995 3.995 0 0 0 0-5.656A3.995 3.995 0 0 0 136.5 104Z" fill="#fff"/><path d="M64.833 72.667H43.167V52.203c0-.661.541-1.203 1.203-1.203h19.26c.662 0 1.203.542 1.203 1.203v20.464Z" fill="url(#a)"/><path d="M50.99 51h6.018v3.01H50.99V51Z" fill="#FFF8E6"/><path d="M109.833 96c0 5.522-4.478 10-10 10-5.521 0-10-4.478-10-10s4.479-10 10-10c5.522 0 10 4.478 10 10Z" fill="#586169"/><path d="M104.833 96c0 2.762-2.236 5-5 5-2.763 0-5-2.237-5-5s2.237-5 5-5c2.764 0 5 2.237 5 5Z" fill="#999"/><path d="M100.67 81c-6.905 0-12.503 5.97-12.503 13.333h23.291c.962 0 1.724-.91 1.587-1.926C112.17 85.957 106.963 81 100.67 81Z" fill="#FA3E3E"/><path d="M66.5 96c0 5.522-4.478 10-10 10s-10-4.478-10-10 4.478-10 10-10 10 4.478 10 10Z" fill="#586169"/><path d="M61.5 96c0 2.762-2.237 5-5 5s-5-2.237-5-5 2.237-5 5-5 5 2.237 5 5Z" fill="#999"/><path d="M92.333 56h5.44a2.06 2.06 0 0 0 2.06-2.06v-7.547a2.06 2.06 0 0 0-2.06-2.06h-5.44a5.833 5.833 0 1 0 0 11.667Z" fill="#FA3E3E"/><path d="M93.167 56h-10v3.333h6.086l-5.096 29.31a.834.834 0 0 1-.822.69h-9.853a.834.834 0 0 1-.779-.535L66.91 73.735a1.665 1.665 0 0 0-1.555-1.068H51.5c-5.963 2.981-10.592 9.963-11.503 18.558-.177 1.668 1.183 3.108 2.861 3.108h46.975L103.167 81c-.61-8.203-5-20-10-25Z" fill="url(#b)"/><path d="M78.167 59.333h5V56h-5a1.667 1.667 0 0 0 0 3.333Z" fill="#565B5E"/><path d="M42.333 76h25.452l-.873-2.267a1.667 1.667 0 0 0-1.555-1.066H42.333a.834.834 0 0 0-.833.833v1.667c0 .46.373.833.833.833Z" fill="#F03434"/><defs><linearGradient id="a" x1="43.588" y1="51.472" x2="64.245" y2="72.742" gradientUnits="userSpaceOnUse"><stop stop-color="#FFD869"/><stop offset="1" stop-color="#FEC52B"/></linearGradient><linearGradient id="b" x1="39.982" y1="75.167" x2="103.167" y2="75.167" gradientUnits="userSpaceOnUse"><stop stop-color="#F03434"/><stop offset="1" stop-color="#D93030"/></linearGradient></defs></svg>